<svg class="img-fluid" id="outputsvg" xmlns="http://www.w3.org/2000/svg" style="transform: matrix(1, 0, 0, 1, 0, 0); transform-origin: 50% 50% 0px; cursor: move; max-height: 500.02px; transition: none;" width="2048" height="2048" viewBox="0 0 20480 20480"><g id="l7MtFm8FQKWnwrtQqd3jgp" fill="rgb(102,184,227)" style="transform: none;"><g style="transform: none;"><path id="pQgUGVJep" d="M10570 14295 c-8 -2 -71 -11 -140 -20 -147 -20 -381 -78 -535 -133 -226 -80 -300 -115 -905 -424 -337 -172 -612 -283 -915 -368 -274 -77 -509 -127 -733 -154 -166 -20 -178 -29 -85 -65 86 -33 280 -69 469 -87 407 -39 815 11 1259 153 231 74 428 157 716 299 516 255 883 375 1329 436 130 17 568 17 685 -1 110 -16 272 -52 383 -85 45 -13 82 -21 82 -17 0 7 -34 35 -86 71 -139 97 -185 126 -261 165 -185 95 -386 159 -648 206 -95 17 -169 22 -360 25 -132 1 -247 1 -255 -1z"></path><path id="piFZVOwIM" d="M11295 13574 c-134 -14 -358 -54 -480 -85 -233 -59 -420 -124 -860 -299 -638 -253 -1053 -364 -1540 -410 -301 -28 -759 1 -1049 67 -37 8 -73 16 -80 18 -6 1 -19 5 -29 10 -10 4 -20 6 -22 3 -10 -9 230 -142 365 -201 579 -257 1198 -319 1931 -196 303 51 538 118 999 287 722 263 1097 348 1595 359 263 6 387 -2 600 -37 211 -35 457 -101 634 -172 107 -42 105 -37 -19 73 -372 327 -867 536 -1399 589 -140 14 -499 11 -646 -6z"></path></g></g><g id="l5DByIGw2NqlnZITjqPw656" fill="rgb(171,207,67)" style="transform: none;"><g style="transform: none;"><path id="p1ELlTb2Ve" d="M11180 15384 c-514 -43 -899 -120 -1321 -263 -758 -258 -1432 -662 -1954 -1171 -107 -105 -169 -171 -145 -154 366 250 738 444 1180 613 61 23 303 97 365 111 375 85 609 117 935 127 303 8 609 -17 925 -77 212 -41 281 -58 530 -132 223 -66 627 -252 875 -403 198 -120 464 -316 625 -460 178 -159 398 -392 524 -555 229 -296 331 -458 476 -755 247 -503 366 -922 437 -1530 17 -148 14 -646 -4 -840 -8 -82 -14 -151 -14 -151 1 -1 48 25 106 58 172 98 499 282 582 327 l78 41 156 -237 c86 -131 213 -325 283 -431 262 -400 287 -437 296 -435 27 5 103 460 137 823 19 205 16 784 -6 1000 -30 310 -66 529 -132 808 -121 515 -319 1016 -582 1472 -239 416 -567 834 -833 1062 -141 121 -282 235 -324 264 -22 15 -76 52 -120 82 -44 31 -93 65 -110 76 -16 12 -39 27 -50 33 -507 311 -1079 526 -1660 627 -352 61 -435 68 -835 71 -206 1 -395 1 -420 -1z"></path><path id="pMNoIGYLk" d="M10095 12326 c-16 -7 -60 -21 -97 -31 -38 -10 -68 -20 -68 -22 0 -2 35 -45 78 -96 207 -246 365 -585 427 -917 44 -234 54 -350 51 -575 -6 -350 -53 -608 -188 -1030 -232 -729 -293 -1007 -305 -1400 -6 -183 -8 -196 -19 -157 -18 61 -42 281 -50 457 -7 164 5 360 36 570 21 143 27 170 93 455 124 534 161 843 139 1172 -10 140 -66 541 -78 557 -6 7 -303 -275 -405 -384 -254 -273 -450 -562 -592 -870 -93 -204 -145 -379 -199 -680 -15 -80 -18 -519 -5 -630 7 -59 20 -135 41 -240 2 -11 15 -65 29 -120 139 -544 453 -1066 921 -1530 174 -173 320 -292 486 -397 136 -86 143 -89 133 -52 -14 54 -7 402 11 519 61 391 213 782 524 1345 110 200 281 551 321 660 43 120 97 302 115 390 44 210 47 564 7 779 -82 435 -340 841 -738 1161 -43 35 -92 72 -109 84 -27 17 -35 33 -53 101 -70 259 -216 551 -426 852 -33 47 -37 48 -80 29z"></path><path id="pi0TJeyqP" d="M15235 9858 c-38 -22 -124 -70 -190 -107 -66 -38 -174 -99 -240 -138 -120 -69 -320 -184 -405 -231 -25 -14 -61 -35 -80 -47 -59 -37 -435 -256 -627 -365 -101 -57 -195 -114 -210 -126 l-28 -22 25 -20 c14 -12 84 -35 165 -55 77 -20 205 -52 285 -72 232 -58 270 -68 270 -71 0 -14 -123 -357 -162 -449 -139 -332 -374 -739 -582 -1008 -34 -44 -70 -92 -82 -108 -60 -84 -257 -303 -399 -444 -426 -426 -873 -749 -1400 -1015 -664 -334 -1331 -519 -2120 -587 -140 -12 -765 -8 -895 5 -261 28 -541 76 -775 132 -222 53 -506 146 -619 201 -58 28 -100 39 -80 20 5 -5 61 -42 124 -82 398 -250 854 -462 1315 -609 234 -75 588 -160 805 -194 636 -100 1266 -100 1900 -1 412 65 964 227 1370 402 598 259 1174 630 1650 1064 299 272 480 470 779 856 150 192 360 516 492 759 92 167 289 588 289 616 0 14 -9 16 523 -126 76 -21 150 -36 165 -34 23 3 27 7 25 33 -1 32 4 24 -548 860 -187 283 -412 625 -500 760 -88 135 -162 245 -165 244 -3 0 -36 -18 -75 -41z"></path></g></g><g id="l4T3KO6lsOdOSp1tVG4cbGc" fill="rgb(45,106,56)" style="transform: none;"><g style="transform: none;"><path id="pCwBorYp2" d="M9915 16299 c-244 -16 -473 -47 -835 -114 -314 -57 -858 -233 -1195 -386 -714 -323 -1338 -761 -1875 -1315 -523 -540 -965 -1218 -1230 -1889 -35 -88 -65 -162 -67 -164 -3 -4 -105 19 -413 91 -174 41 -295 65 -312 60 -10 -2 -18 -11 -18 -19 0 -17 110 -179 455 -673 133 -190 302 -433 375 -540 74 -107 169 -246 212 -308 142 -207 242 -344 255 -349 17 -7 270 151 1373 856 477 306 473 302 454 321 -10 10 -107 34 -459 115 -137 32 -254 61 -259 65 -11 11 51 208 131 410 177 451 427 868 758 1265 442 530 963 955 1590 1298 419 229 895 411 1380 527 205 49 222 52 520 100 271 43 859 64 1164 41 418 -32 869 -121 1246 -246 170 -56 440 -157 488 -182 53 -27 39 -6 -25 39 -483 337 -1086 621 -1663 782 -409 115 -836 189 -1250 216 -173 11 -625 11 -800 -1z"></path><path id="p10uDKMFtl" d="M4420 11515 c0 -3 -11 -72 -25 -153 -121 -703 -105 -1477 46 -2172 68 -311 203 -759 279 -925 5 -11 30 -69 55 -130 126 -295 305 -622 510 -930 276 -414 546 -708 900 -980 607 -465 1316 -761 2109 -880 301 -45 384 -50 786 -50 421 0 541 10 910 76 609 108 1227 340 1765 664 262 158 447 292 695 504 135 115 520 495 520 513 0 6 -21 -6 -47 -26 -608 -457 -1199 -729 -1881 -865 -1076 -216 -2224 12 -3162 627 -368 242 -728 568 -998 906 -426 531 -718 1154 -851 1811 -69 342 -96 634 -88 965 3 124 11 263 17 309 6 46 9 86 6 88 -2 3 -87 -47 -188 -110 -191 -119 -480 -293 -534 -320 -29 -15 -33 -15 -46 1 -41 46 -707 989 -746 1055 -15 24 -32 36 -32 22z"></path></g></g></svg>
